<?xml version="1.0" encoding="UTF-8" standalone="no"?>
<!DOCTYPE svg PUBLIC "-//W3C//DTD SVG 1.1//EN" "http://www.w3.org/Graphics/SVG/1.1/DTD/svg11.dtd">

<!-- Created with Vectornator (http://vectornator.io/) -->
<svg height="100%" stroke-miterlimit="10" style="fill-rule:nonzero;clip-rule:evenodd;stroke-linecap:round;stroke-linejoin:round;" version="1.1" viewBox="0 0 533.224 344.11" width="100%" xml:space="preserve" xmlns="http://www.w3.org/2000/svg" xmlns:vectornator="http://vectornator.io" xmlns:xlink="http://www.w3.org/1999/xlink">
<metadata>
<vectornator:setting key="IsTimeLapseWatermarkDisabled" value="false"/>
<vectornator:setting key="UndoHistoryDisabled" value="true"/>
<vectornator:setting key="VNDimensionsVisible" value="true"/>
<vectornator:setting key="VNSnapToGuides" value="true"/>
<vectornator:setting key="WDCMYKEnabledKey" value="false"/>
<vectornator:setting key="WDDisplayWhiteBackground" value="false"/>
<vectornator:setting key="WDDynamicGuides" value="false"/>
<vectornator:setting key="WDGuidesVisible" value="true"/>
<vectornator:setting key="WDIsolateActiveLayer" value="false"/>
<vectornator:setting key="WDOutlineMode" value="false"/>
<vectornator:setting key="WDRulersVisible" value="true"/>
<vectornator:setting key="WDSnapToEdges" value="false"/>
<vectornator:setting key="WDSnapToGrid" value="false"/>
<vectornator:setting key="WDSnapToPoints" value="false"/>
<vectornator:setting key="WDUnits" value="Millimeters"/>
</metadata>
<defs/>
<g id="Layer-1" vectornator:layerName="Layer 1">
<path d="M14.9414 21.5143L514.941 21.5143L514.941 21.5143L514.941 334.514L514.941 334.514L14.9414 334.514L14.9414 334.514L14.9414 21.5143L14.9414 21.5143Z" fill="#041b15" fill-rule="evenodd" opacity="1" stroke="none"/>
<path d="M104.207 64.7283C113.341 64.7385 122.475 64.7259 131.608 64.6709C143.055 64.6709 151.541 70.5828 151.541 76.6769L151.541 136.42C151.663 143.134 143.051 146.563 136.234 146.563C132.719 146.563 126.453 146.53 121.67 146.53L104.207 146.53L104.207 64.729L104.207 64.7283ZM131.781 128.607L131.781 81.7323C131.781 78.6281 128.559 78.5154 123.969 78.5154L123.969 106.089L123.969 132.85C128.929 132.85 131.781 131.842 131.781 128.608L131.781 128.607Z" fill="#ffffff" fill-rule="evenodd" opacity="1" stroke="none"/>
<path d="M161.191 131.544L161.192 64.6783L181.93 64.6783L181.93 129.637C181.93 133.581 181.918 134.56 185.003 134.56C188.058 134.56 188.005 133.488 188.005 129.637L188.076 64.6783L208.957 64.6783C208.957 86.6643 208.928 109.847 208.928 131.544C208.928 135.338 208.264 148.547 184.859 148.547C161.339 148.547 161.191 135.483 161.191 131.544Z" fill="#ffffff" fill-rule="evenodd" opacity="1" stroke="none"/>
<path d="M218.021 64.6143C222.63 64.6143 229.633 64.6139 235.088 64.6139C238.329 75.7209 243.379 89.9919 247.896 101.822L247.896 64.6139L264.984 64.6139L264.984 146.666L247.111 146.666C243.123 134.631 239.059 122.62 235.087 109.621L235.087 146.666L218.02 146.666L218.02 64.6149L218.021 64.6143Z" fill="#ffffff" fill-rule="evenodd" opacity="1" stroke="none"/>
<path d="M274.651 64.7283C283.785 64.7385 292.919 64.7259 302.052 64.6709C313.499 64.6709 321.985 70.5828 321.985 76.6769L321.985 136.42C322.107 143.134 313.495 146.563 306.678 146.563C303.163 146.563 296.897 146.53 292.114 146.53L274.651 146.53L274.651 64.729L274.651 64.7283ZM302.225 128.607L302.225 81.7323C302.225 78.6281 299.003 78.5154 294.413 78.5154L294.413 106.089L294.413 132.85C299.373 132.85 302.225 131.842 302.225 128.608L302.225 128.607Z" fill="#ffffff" fill-rule="evenodd" opacity="1" stroke="none"/>
<path d="M331.901 64.5343L366.834 64.5343L366.834 80.4573L352.861 80.4573L352.861 97.5173L365.859 97.5173L365.859 111.49L352.861 111.49L352.861 130.5L367.809 130.5L367.809 146.423L331.901 146.423C331.901 146.423 331.901 64.5343 331.901 64.5343Z" fill="#ffffff" fill-rule="evenodd" opacity="1" stroke="none"/>
<path d="M375.261 146.654L375.261 65.2253C386.545 65.2253 395.251 65.4597 401.961 65.4597C415.35 65.4597 422.055 69.0708 422.055 87.1867C422.055 101.526 420.186 101.12 411.006 103.76C415.468 104.259 421.912 108.328 421.912 112.534L422.055 146.655L402.949 146.655C402.949 135.159 402.72 122.871 402.72 111.56C401.398 110.178 400.53 109.61 396.058 109.61L396.058 146.655L375.261 146.655L375.261 146.654ZM402.964 94.6613C402.964 90.2399 403.005 80.3633 403.005 80.3633C401.93 78.9965 400.682 78.438 398.659 78.4136L396.059 78.4136L396.059 97.5856L398.009 97.5856C400.171 97.6255 401.872 96.5108 402.964 94.661L402.964 94.6613Z" fill="#ffffff" fill-rule="evenodd" opacity="1" stroke="none"/>
<path d="M96.0984 236.454L96.0984 155.166C105.363 155.166 114.796 155.166 124.044 155.166C124.847 163.297 128.914 188.042 129.569 192.536L135.093 155.166L162.064 155.166L162.064 236.454L143.5 236.454L143.5 181.557L136.068 236.454L123.07 236.454C121.484 226.934 117.236 198.621 114.861 182.615C114.861 197.787 114.946 219.348 114.946 236.454L96.0978 236.454L96.0984 236.454Z" fill="#ffffff" fill-rule="evenodd" opacity="1" stroke="none"/>
<path d="M171.211 154.744L191.891 154.744L191.891 236.545L171.211 236.545L171.211 154.744Z" fill="#ffffff" fill-rule="evenodd" opacity="1" stroke="none"/>
<path d="M200.971 154.554L237.041 154.554L237.041 170.477L222.093 170.477L222.093 186.725L235.091 186.725L235.091 201.673L222.093 201.673L222.093 236.443L200.971 236.443L200.971 154.554Z" fill="#ffffff" fill-rule="evenodd" opacity="1" stroke="none"/>
<path d="M242.561 154.554L278.631 154.554L278.631 170.477L263.683 170.477L263.683 186.725L276.681 186.725L276.681 201.673L263.683 201.673L263.683 236.443L242.561 236.443L242.561 154.554Z" fill="#ffffff" fill-rule="evenodd" opacity="1" stroke="none"/>
<path d="M284.221 154.614L305.018 154.614L305.018 220.58L318.016 220.58L318.016 236.503L284.22 236.503L284.22 154.614L284.221 154.614Z" fill="#ffffff" fill-rule="evenodd" opacity="1" stroke="none"/>
<path d="M323.451 154.744L344.131 154.744L344.131 236.545L323.451 236.545L323.451 154.744Z" fill="#ffffff" fill-rule="evenodd" opacity="1" stroke="none"/>
<path d="M353.791 154.084C358.4 154.084 365.403 154.084 370.858 154.084C374.099 165.191 379.149 179.462 383.666 191.292L383.666 154.084L400.754 154.084L400.754 236.136L382.881 236.136C378.893 224.101 374.829 212.09 370.857 199.091L370.857 236.136L353.79 236.136L353.79 154.085L353.791 154.084Z" fill="#ffffff" fill-rule="evenodd" opacity="1" stroke="none"/>
<path d="M404.931 154.514L439.93 154.514L439.93 154.514L439.93 163.493L439.93 163.493L404.931 163.493L404.931 163.493L404.931 154.514L404.931 154.514Z" fill="#b6b4b5" fill-rule="evenodd" opacity="1" stroke="none"/>
<path d="M404.951 167.524L439.913 167.524L439.913 175.495L425.868 179.609L439.913 179.552L439.913 188.52L404.929 188.52L404.929 179.559L419.922 175.538L404.958 175.509L404.951 167.524L404.951 167.524Z" fill="#b6b4b5" fill-rule="evenodd" opacity="1" stroke="none"/>
<path d="M424.951 213.504L424.951 204.548L433.908 204.548C433.908 204.548 434.964 204.588 434.964 202.557C434.964 200.526 433.949 200.506 433.949 200.506L410.979 200.506C410.979 200.506 409.923 200.567 409.923 202.537C409.923 204.507 410.938 204.548 410.938 204.548L418.879 204.548L418.879 213.494L409.923 213.494C409.923 213.494 403.992 213.464 403.992 202.902C403.992 192.341 409.923 191.528 409.923 191.528L434.924 191.528C434.924 191.528 440.956 191.366 440.956 202.536C440.956 213.706 434.949 213.503 434.949 213.503L424.951 213.503L424.951 213.504Z" fill="#b6b4b5" fill-rule="evenodd" opacity="1" stroke="none"/>
<path d="M406.891 220.524L420.956 220.524L420.956 233.512C420.956 238.18 413.845 247.526 406.942 247.526L406.942 241.576C408.227 241.576 410.923 237.741 410.923 236.498L406.922 236.498L406.892 220.524L406.891 220.524Z" fill="#ffffff" fill-rule="evenodd" opacity="1" stroke="none"/>
<path d="M360.061 251.394L359.624 252.176C356.984 256.91 353.545 263.223 350.718 268.238L350.28 268.988L351.155 268.956L354.061 268.925L354.343 268.925L354.499 268.675L356.593 264.925L363.874 264.925L365.968 268.644L366.124 268.894L366.405 268.894L369.28 268.894L370.155 268.894L369.718 268.144L360.499 252.144L360.061 251.394L360.061 251.394ZM360.218 257.582L362.405 261.988L358.124 261.988C358.845 260.504 359.529 258.955 360.218 257.582L360.218 257.582Z" fill="#ffffff" fill-rule="evenodd" opacity="1" stroke="none"/>
<path d="M380.001 251.514L380.001 252.014L380.001 268.045L380.001 268.545L380.501 268.545L383.439 268.639L383.97 268.639L383.97 268.139L383.97 258.233L394.126 268.421L394.282 268.546L394.47 268.546L397.501 268.546L398.001 268.546L398.001 268.046L398.001 252.015L398.001 251.515L397.501 251.515L394.47 251.515L393.97 251.515L393.97 252.015L393.97 261.89L383.814 251.671L383.689 251.515L383.47 251.515L380.501 251.515L380.001 251.515L380.001 251.514Z" fill="#ffffff" fill-rule="evenodd" opacity="1" stroke="none"/>
<path d="M251.941 251.544C250.31 251.544 248.002 251.942 246.035 253.201C244.069 254.459 242.473 256.653 242.473 260.044C242.473 263.416 243.985 265.725 245.91 267.107C247.836 268.489 250.143 268.982 251.879 268.982C255.225 268.982 257.192 267.888 257.192 267.888L257.442 267.732L257.442 267.451L257.442 265.076L257.442 264.169L256.66 264.638C255.22 265.528 254.406 266.107 252.41 266.107C251.48 266.107 249.611 265.613 248.098 264.576C246.584 263.538 245.41 262.03 245.41 259.982C245.41 257.909 246.329 256.613 247.598 255.763C248.867 254.913 250.501 254.576 251.692 254.576C254.213 254.576 254.994 254.879 256.66 255.919L257.442 256.419L257.442 255.513L257.442 253.544L257.442 253.263L257.192 253.138C255.787 252.306 255.082 251.544 251.942 251.544L251.941 251.544Z" fill="#ffffff" fill-rule="evenodd" opacity="1" stroke="none"/>
<path d="M406.411 251.544L406.943 252.326L412.849 261.044C412.849 261.387 412.849 267.869 412.849 268.107L412.849 268.607L413.349 268.607L416.505 268.607L417.005 268.607L417.005 268.107L417.005 261.326L422.943 252.326L423.443 251.544L422.505 251.544L419.443 251.544L419.193 251.544L419.036 251.763L414.974 257.201L410.911 251.763L410.755 251.544L410.505 251.544L407.38 251.544L406.411 251.544L406.411 251.544Z" fill="#ffffff" fill-rule="evenodd" opacity="1" stroke="none"/>
<path d="M279.441 252.014C277.023 252.014 274.548 252.791 272.66 254.171C270.772 255.55 269.473 257.573 269.473 259.983C269.473 262.38 270.761 264.65 272.629 266.296C274.497 267.941 276.948 268.983 279.379 268.983C281.823 268.983 284.322 267.937 286.223 266.296C288.123 264.654 289.442 262.394 289.442 259.983C289.442 257.587 288.12 255.585 286.223 254.202C284.325 252.819 281.848 252.014 279.442 252.014L279.441 252.014ZM279.41 254.577C281.004 254.577 282.788 255.18 284.129 256.171C285.47 257.162 286.348 258.49 286.348 259.983C286.348 261.461 285.438 262.99 284.098 264.139C282.758 265.288 281.026 266.046 279.473 266.046C277.931 266.046 276.104 265.317 274.723 264.171C273.342 263.025 272.41 261.474 272.41 259.952C272.41 258.439 273.31 257.119 274.66 256.139C276.011 255.16 277.798 254.577 279.41 254.577L279.41 254.577Z" fill="#ffffff" fill-rule="evenodd" opacity="1" stroke="none"/>
<path d="M163.548 252.957L163.548 253.457L163.548 268.238L163.548 268.738L164.048 268.738L165.986 268.738L166.486 268.738L166.486 268.238L166.486 262.895L170.048 262.895C170.067 262.895 170.07 262.895 170.079 262.895C170.099 262.894 170.123 262.865 170.142 262.863C170.181 262.86 170.24 262.872 170.298 262.863C170.415 262.847 170.58 262.82 170.767 262.77C171.141 262.669 171.612 262.484 172.111 262.145C173.107 261.465 174.111 260.123 174.111 257.832C174.111 255.568 173.405 254.305 172.642 253.645C172.26 253.315 171.873 253.14 171.579 253.051C171.433 253.006 171.295 252.97 171.204 252.957C171.159 252.95 171.138 252.959 171.111 252.957C171.111 252.957 171.095 253.207 171.079 253.457C171.078 253.457 171.048 253.457 171.048 253.457L171.048 252.957L171.017 252.957L164.048 252.957L163.548 252.957L163.548 252.957ZM166.548 255.895L168.892 255.895L168.923 255.895C168.948 255.898 168.961 255.892 168.986 255.895C169.061 255.902 169.155 255.941 169.267 255.957C169.492 255.989 169.803 256.026 170.08 256.145C170.632 256.383 171.111 256.759 171.111 257.832C171.111 258.89 170.528 259.325 169.861 259.614C169.527 259.758 169.184 259.853 168.923 259.895C168.793 259.916 168.685 259.92 168.611 259.926C168.574 259.929 168.536 259.925 168.517 259.926C168.517 259.926 168.482 259.922 168.454 259.926L166.548 259.926C166.548 259.926 166.548 255.895 166.548 255.895Z" fill="#ffffff" fill-rule="evenodd" opacity="1" stroke="none"/>
<path d="M315.251 252.984L315.126 253.203L309.439 261.109L303.751 253.234L303.595 253.016L303.345 253.016L300.47 253.016L299.97 253.016L299.97 253.516L299.97 268.047L299.97 268.547L300.47 268.547L302.439 268.547L302.97 268.578L302.97 268.047L302.97 257.578L309.033 265.421L309.408 265.921L309.814 265.421L315.876 257.546L315.876 268.14L315.876 268.64L316.376 268.64L318.47 268.64L318.97 268.64L318.97 268.14L318.97 253.484L318.97 252.984L318.47 252.984L315.533 252.984L315.252 252.984L315.251 252.984Z" fill="#ffffff" fill-rule="evenodd" opacity="1" stroke="none"/>
<path d="M105.631 251.302C104 251.302 101.692 251.699 99.7253 252.958C97.7589 254.217 96.1628 256.41 96.1628 259.802C96.1628 263.174 97.6747 265.482 99.6003 266.864C101.526 268.246 103.833 268.739 105.569 268.739C108.915 268.739 110.882 267.645 110.882 267.645L111.132 267.489L111.132 267.208L111.132 264.833L111.132 263.927L110.35 264.395C108.91 265.286 108.096 265.864 106.1 265.864C105.17 265.864 103.301 265.37 101.788 264.333C100.275 263.296 99.1003 261.788 99.1003 259.739C99.1003 257.666 100.019 256.37 101.288 255.52C102.557 254.671 104.191 254.333 105.382 254.333C107.903 254.333 108.684 254.637 110.35 255.677L111.132 256.177L111.132 255.271L111.132 253.302L111.132 253.02L110.882 252.895C109.477 252.063 108.772 251.302 105.632 251.302L105.631 251.302Z" fill="#ffffff" fill-rule="evenodd" opacity="1" stroke="none"/>
<path d="M120.001 252.304L120.001 252.804L120.001 267.585L120.001 268.085L120.501 268.085L122.439 268.085L122.939 268.085L122.939 267.585L122.939 262.242L124.251 262.21L128.251 267.898L128.376 268.117L128.658 268.117L131.408 268.085L132.47 268.085L131.814 267.273L127.408 262.023C127.752 261.915 128.144 261.778 128.564 261.492C129.56 260.813 130.533 259.47 130.533 257.179C130.533 254.915 129.858 253.652 129.095 252.992C128.713 252.662 128.326 252.488 128.033 252.398C127.886 252.353 127.748 252.317 127.658 252.304C127.612 252.298 127.591 252.306 127.564 252.304C127.564 252.304 127.525 252.553 127.501 252.804C127.5 252.804 127.47 252.804 127.47 252.804L127.47 252.304L127.439 252.304L120.501 252.304L120.001 252.304L120.001 252.304ZM123.001 255.242L125.314 255.242L125.376 255.242C125.394 255.244 125.42 255.24 125.439 255.242C125.514 255.249 125.608 255.289 125.72 255.304C125.945 255.336 126.225 255.373 126.501 255.492C127.054 255.73 127.564 256.106 127.564 257.179C127.564 258.237 126.981 258.672 126.314 258.961C125.98 259.105 125.637 259.2 125.376 259.242C125.246 259.263 125.138 259.267 125.064 259.273C125.027 259.276 124.989 259.272 124.97 259.273C124.97 259.273 124.935 259.269 124.908 259.273L123.001 259.273C123.001 259.273 123.001 255.242 123.001 255.242Z" fill="#ffffff" fill-rule="evenodd" opacity="1" stroke="none"/>
<path d="M139.411 251.676L139.943 252.457L145.849 261.176C145.849 261.519 145.849 268.001 145.849 268.238L145.849 268.738L146.349 268.738L149.505 268.738L150.005 268.738L150.005 268.238L150.005 261.457L155.942 252.457L156.442 251.676L155.505 251.676L152.442 251.676L152.192 251.676L152.036 251.895L147.974 257.332L143.911 251.895L143.755 251.676L143.505 251.676L140.38 251.676L139.411 251.676L139.411 251.676Z" fill="#ffffff" fill-rule="evenodd" opacity="1" stroke="none"/>
<path d="M212.433 251.302C210.014 251.302 207.54 252.078 205.652 253.458C203.764 254.838 202.464 256.86 202.464 259.27C202.464 261.667 203.753 263.938 205.621 265.583C207.489 267.228 209.94 268.27 212.371 268.27C214.814 268.27 217.314 267.224 219.214 265.583C221.115 263.941 222.433 261.682 222.433 259.27C222.433 256.874 221.112 254.872 219.214 253.489C217.317 252.106 214.84 251.302 212.433 251.302L212.433 251.302ZM212.402 253.864C213.995 253.864 215.78 254.467 217.121 255.458C218.462 256.449 219.339 257.778 219.339 259.27C219.339 260.749 218.429 262.278 217.089 263.427C215.75 264.576 214.018 265.333 212.464 265.333C210.923 265.333 209.095 264.604 207.714 263.458C206.333 262.312 205.402 260.762 205.402 259.239C205.402 257.727 206.301 256.406 207.652 255.427C209.002 254.447 210.79 253.864 212.402 253.864L212.402 253.864Z" fill="#ffffff" fill-rule="evenodd" opacity="1" stroke="none"/>
<path d="M331.263 253.304L331.263 253.804L331.263 268.585L331.263 269.085L331.763 269.085L333.7 269.085L334.2 269.085L334.2 268.585L334.2 263.242L337.763 263.242C337.781 263.242 337.784 263.242 337.794 263.242C337.814 263.241 337.837 263.212 337.857 263.21C337.895 263.207 337.954 263.219 338.013 263.21C338.13 263.194 338.294 263.167 338.482 263.117C338.856 263.016 339.327 262.831 339.825 262.492C340.822 261.813 341.825 260.47 341.825 258.179C341.825 255.915 341.12 254.652 340.357 253.992C339.975 253.662 339.587 253.488 339.294 253.398C339.147 253.353 339.01 253.317 338.919 253.304C338.874 253.298 338.853 253.306 338.825 253.304C338.825 253.304 338.81 253.554 338.794 253.804C338.792 253.804 338.762 253.804 338.763 253.804L338.763 253.304L338.732 253.304L331.763 253.304L331.263 253.304L331.263 253.304ZM334.263 256.242L336.607 256.242L336.638 256.242C336.662 256.245 336.675 256.24 336.7 256.242C336.776 256.249 336.869 256.289 336.982 256.304C337.206 256.336 337.518 256.373 337.794 256.492C338.347 256.73 338.825 257.106 338.825 258.179C338.825 259.237 338.243 259.672 337.575 259.961C337.241 260.105 336.898 260.2 336.638 260.242C336.508 260.263 336.399 260.267 336.325 260.273C336.288 260.276 336.251 260.272 336.232 260.273C336.232 260.273 336.197 260.269 336.169 260.273L334.263 260.273C334.263 260.273 334.263 256.242 334.263 256.242Z" fill="#ffffff" fill-rule="evenodd" opacity="1" stroke="none"/>
<path d="M191.473 253.277L191.473 268.908L187.937 268.908L187.937 253.277L191.473 253.277Z" fill="#ffffff" fill-rule="evenodd" opacity="1" stroke="none"/>
<path d="M181.402 252.302L198.008 252.302L198.008 255.838L181.402 255.838L181.402 252.302Z" fill="#ffffff" fill-rule="evenodd" opacity="1" stroke="none"/>
</g>
</svg>
